<svg width="250" height="250" viewBox="0 0 250 250" fill="none"
    xmlns="http://www.w3.org/2000/svg">
    <rect width="250" height="250" rx="125" fill="#202020"/>
    <path d="M158.611 100.895C157.545 97.4432 156.075 94.3537 154.2 91.6264C152.368 88.8565 150.152 86.4915 147.553 84.5312C144.996 82.571 142.055 81.1008 138.732 80.1207C135.408 79.098 131.786 78.5866 127.865 78.5866C120.834 78.5866 114.57 80.3551 109.072 83.892C103.575 87.429 99.25 92.6278 96.0966 99.4886C92.9858 106.307 91.4304 114.616 91.4304 124.418C91.4304 134.304 92.9858 142.678 96.0966 149.538C99.2074 156.399 103.533 161.619 109.072 165.199C114.612 168.736 121.047 170.504 128.376 170.504C135.024 170.504 140.777 169.226 145.635 166.669C150.536 164.112 154.307 160.49 156.949 155.803C159.591 151.072 160.912 145.533 160.912 139.183L166.281 140.014H130.741V121.477H183.859V137.202C183.859 148.409 181.473 158.104 176.7 166.286C171.928 174.467 165.365 180.774 157.013 185.206C148.661 189.595 139.072 191.79 128.249 191.79C116.189 191.79 105.599 189.084 96.4801 183.672C87.4034 178.217 80.3082 170.483 75.1946 160.469C70.1236 150.412 67.5881 138.48 67.5881 124.673C67.5881 114.105 69.0795 104.666 72.0625 96.3565C75.0881 88.0469 79.3068 80.9943 84.7188 75.1989C90.1307 69.3608 96.4801 64.929 103.767 61.9034C111.054 58.8352 118.98 57.3011 127.545 57.3011C134.79 57.3011 141.544 58.3665 147.808 60.4972C154.072 62.5852 159.634 65.5682 164.491 69.446C169.392 73.3239 173.419 77.9261 176.572 83.2528C179.726 88.5795 181.793 94.4602 182.773 100.895H158.611Z" fill="white"/>
    <g clip-path="url(#clip0_2_2)">
        <rect width="54" height="16" transform="translate(130 121)" fill="#202020"/>
        <path d="M130.689 133V122.309H133.591V130.661H137.914V133H130.689ZM141.989 122.309V133H139.087V122.309H141.989ZM143.365 122.309H146.977L149.462 128.364H149.587L152.072 122.309H155.685V133H152.845V126.819H152.761L150.381 132.916H148.669L146.288 126.778H146.205V133H143.365V122.309ZM157.06 133V122.309H161.675C162.468 122.309 163.162 122.466 163.758 122.779C164.353 123.092 164.815 123.532 165.146 124.1C165.477 124.667 165.642 125.33 165.642 126.088C165.642 126.854 165.471 127.517 165.13 128.077C164.793 128.638 164.318 129.069 163.705 129.372C163.096 129.675 162.385 129.826 161.57 129.826H158.814V127.571H160.986C161.327 127.571 161.617 127.512 161.857 127.394C162.101 127.272 162.287 127.099 162.416 126.877C162.548 126.654 162.614 126.391 162.614 126.088C162.614 125.782 162.548 125.521 162.416 125.305C162.287 125.086 162.101 124.919 161.857 124.804C161.617 124.686 161.327 124.627 160.986 124.627H159.962V133H157.06ZM172.47 125.65C172.442 125.302 172.312 125.031 172.078 124.836C171.849 124.641 171.499 124.543 171.029 124.543C170.73 124.543 170.485 124.58 170.293 124.653C170.105 124.723 169.966 124.818 169.876 124.94C169.785 125.062 169.738 125.201 169.735 125.358C169.728 125.486 169.75 125.603 169.802 125.707C169.858 125.808 169.945 125.901 170.064 125.984C170.182 126.064 170.333 126.137 170.518 126.203C170.702 126.269 170.921 126.329 171.175 126.381L172.052 126.569C172.644 126.694 173.15 126.859 173.571 127.065C173.993 127.27 174.337 127.512 174.605 127.79C174.873 128.065 175.07 128.375 175.195 128.719C175.324 129.064 175.39 129.44 175.393 129.847C175.39 130.55 175.214 131.145 174.866 131.632C174.518 132.12 174.02 132.49 173.373 132.744C172.729 132.998 171.955 133.125 171.05 133.125C170.121 133.125 169.31 132.988 168.618 132.713C167.928 132.438 167.393 132.015 167.01 131.444C166.63 130.87 166.439 130.136 166.435 129.241H169.192C169.209 129.569 169.291 129.844 169.437 130.066C169.583 130.289 169.789 130.458 170.053 130.573C170.321 130.687 170.639 130.745 171.008 130.745C171.318 130.745 171.577 130.707 171.786 130.63C171.995 130.553 172.153 130.447 172.261 130.312C172.369 130.176 172.425 130.021 172.428 129.847C172.425 129.683 172.371 129.541 172.266 129.419C172.165 129.294 171.998 129.182 171.765 129.085C171.532 128.984 171.217 128.89 170.82 128.803L169.756 128.573C168.809 128.368 168.062 128.025 167.516 127.545C166.973 127.061 166.703 126.402 166.707 125.566C166.703 124.888 166.884 124.294 167.25 123.786C167.619 123.275 168.129 122.876 168.779 122.591C169.434 122.306 170.184 122.163 171.029 122.163C171.892 122.163 172.639 122.307 173.269 122.596C173.899 122.885 174.384 123.292 174.725 123.818C175.07 124.34 175.244 124.95 175.247 125.65H172.47ZM176.497 133V122.309H184.202V124.648H179.4V126.485H183.806V128.824H179.4V130.661H184.181V133H176.497Z" fill="white"/>
    </g>
    <defs>
        <clipPath id="clip0_2_2">
            <rect width="54" height="16" fill="white" transform="translate(130 121)"/>
        </clipPath>
    </defs>
</svg>
