<svg width="29" height="25" viewBox="0 0 29 25" fill="none" xmlns="http://www.w3.org/2000/svg">
<path d="M2.46709 0.145339C1.24645 -0.385026 -0.107757 0.623918 0.310425 1.7534L3.24694 9.68478C3.30468 9.8407 3.41065 9.97981 3.55327 10.0869C3.69589 10.194 3.86966 10.2649 4.05556 10.2919L16.2506 12.0589C16.8229 12.142 16.8229 12.8563 16.2506 12.9393L4.05659 14.7054C3.8705 14.7323 3.69652 14.8031 3.5537 14.9102C3.41089 15.0173 3.30476 15.1565 3.24694 15.3125L0.310425 23.2466C-0.107757 24.3761 1.24543 25.385 2.46709 24.8547L28.1477 13.6982C29.2841 13.2045 29.2841 11.7964 28.1477 11.3018L2.46709 0.145339Z" fill="white"/>
</svg>
