<svg width="25" height="25" viewBox="0 0 25 25" fill="none"
    xmlns="http://www.w3.org/2000/svg">
    <path d="M2.77778 25C2.01389 25 1.35972 24.7278 0.81528 24.1833C0.270835 23.6389 -0.000923568 22.9852 2.35805e-06 22.2222V2.77778C2.35805e-06 2.01389 0.272225 1.35972 0.816669 0.81528C1.36111 0.270835 2.01482 -0.000923568 2.77778 2.35805e-06H22.2222C22.9861 2.35805e-06 23.6403 0.272225 24.1847 0.816669C24.7292 1.36111 25.0009 2.01482 25 2.77778V22.2222C25 22.9861 24.7278 23.6403 24.1833 24.1847C23.6389 24.7292 22.9852 25.0009 22.2222 25H2.77778ZM4.16667 19.4444H20.8333L15.625 12.5L11.4583 18.0556L8.33333 13.8889L4.16667 19.4444Z" fill="white"/>
</svg>
