<svg width="25" height="25" viewBox="0 0 25 25" fill="none"
    xmlns="http://www.w3.org/2000/svg">
    <path d="M25 23.8636C25 24.165 24.8987 24.4541 24.7184 24.6672C24.538 24.8803 24.2935 25 24.0385 25H0.961538C0.706523 25 0.461951 24.8803 0.281628 24.6672C0.101305 24.4541 0 24.165 0 23.8636C0 23.5623 0.101305 23.2732 0.281628 23.0601C0.461951 22.847 0.706523 22.7273 0.961538 22.7273H24.0385C24.2935 22.7273 24.538 22.847 24.7184 23.0601C24.8987 23.2732 25 23.5623 25 23.8636ZM25 2.27273V18.1818C25 18.7846 24.7974 19.3627 24.4367 19.7889C24.0761 20.2151 23.587 20.4545 23.0769 20.4545H1.92308C1.41305 20.4545 0.923903 20.2151 0.563256 19.7889C0.202609 19.3627 0 18.7846 0 18.1818V2.27273C0 1.66996 0.202609 1.09189 0.563256 0.665666C0.923903 0.239447 1.41305 0 1.92308 0H23.0769C23.587 0 24.0761 0.239447 24.4367 0.665666C24.7974 1.09189 25 1.66996 25 2.27273ZM16.8269 10.2273C16.8269 10.036 16.786 9.84788 16.708 9.68027C16.6301 9.51267 16.5176 9.37103 16.381 9.26847L11.0925 5.29119C10.9472 5.18205 10.7797 5.12105 10.6076 5.11456C10.4354 5.10808 10.265 5.15635 10.114 5.25433C9.96309 5.3523 9.83718 5.4964 9.74946 5.67155C9.66174 5.84669 9.61544 6.04647 9.61538 6.25V14.2045C9.61544 14.4081 9.66174 14.6079 9.74946 14.783C9.83718 14.9581 9.96309 15.1022 10.114 15.2002C10.265 15.2982 10.4354 15.3465 10.6076 15.34C10.7797 15.3335 10.9472 15.2725 11.0925 15.1634L16.381 11.1861C16.5176 11.0835 16.6301 10.9419 16.708 10.7743C16.786 10.6067 16.8269 10.4185 16.8269 10.2273Z" fill="white"/>
</svg>
